<svg width="25" height="24" viewBox="0 0 25 24" fill="none" xmlns="http://www.w3.org/2000/svg">
<rect x="0.699219" width="24" height="24" rx="12" fill="#7C9DEF"/>
<path d="M17.3662 8.66665H15.3662V7.99998C15.3662 7.29274 15.0853 6.61446 14.5852 6.11436C14.0851 5.61426 13.4068 5.33331 12.6995 5.33331C11.9923 5.33331 11.314 5.61426 10.8139 6.11436C10.3138 6.61446 10.0329 7.29274 10.0329 7.99998V8.66665H8.03288C7.85607 8.66665 7.6865 8.73688 7.56147 8.86191C7.43645 8.98693 7.36621 9.1565 7.36621 9.33331V16.6666C7.36621 17.1971 7.57692 17.7058 7.952 18.0809C8.32707 18.4559 8.83578 18.6666 9.36621 18.6666H16.0329C16.5633 18.6666 17.072 18.4559 17.4471 18.0809C17.8222 17.7058 18.0329 17.1971 18.0329 16.6666V9.33331C18.0329 9.1565 17.9626 8.98693 17.8376 8.86191C17.7126 8.73688 17.543 8.66665 17.3662 8.66665ZM11.3662 7.99998C11.3662 7.64636 11.5067 7.30722 11.7567 7.05717C12.0068 6.80712 12.3459 6.66665 12.6995 6.66665C13.0532 6.66665 13.3923 6.80712 13.6424 7.05717C13.8924 7.30722 14.0329 7.64636 14.0329 7.99998V8.66665H11.3662V7.99998ZM16.6995 16.6666C16.6995 16.8435 16.6293 17.013 16.5043 17.1381C16.3793 17.2631 16.2097 17.3333 16.0329 17.3333H9.36621C9.1894 17.3333 9.01983 17.2631 8.89481 17.1381C8.76978 17.013 8.69954 16.8435 8.69954 16.6666V9.99998H10.0329V10.6666C10.0329 10.8435 10.1031 11.013 10.2281 11.1381C10.3532 11.2631 10.5227 11.3333 10.6995 11.3333C10.8764 11.3333 11.0459 11.2631 11.1709 11.1381C11.296 11.013 11.3662 10.8435 11.3662 10.6666V9.99998H14.0329V10.6666C14.0329 10.8435 14.1031 11.013 14.2281 11.1381C14.3532 11.2631 14.5227 11.3333 14.6995 11.3333C14.8764 11.3333 15.0459 11.2631 15.1709 11.1381C15.296 11.013 15.3662 10.8435 15.3662 10.6666V9.99998H16.6995V16.6666Z" fill="white"/>
</svg>
