<svg width="24" height="24" viewBox="0 0 24 24" fill="none" xmlns="http://www.w3.org/2000/svg">
<path d="M19.8094 4.19064C19.6321 4.01455 19.4096 3.89075 19.1665 3.83287C18.9233 3.77498 18.669 3.78524 18.4313 3.86251L4.71565 8.43751C4.46128 8.51812 4.2365 8.67229 4.0697 8.88057C3.9029 9.08885 3.80157 9.34188 3.77849 9.60772C3.75542 9.87356 3.81165 10.1403 3.94007 10.3742C4.06849 10.6081 4.26334 10.7987 4.50003 10.9219L10.1907 13.7344L13.0031 19.4438C13.1162 19.6672 13.2892 19.8549 13.5028 19.9857C13.7163 20.1165 13.9621 20.1853 14.2125 20.1844H14.3063C14.5745 20.1646 14.8306 20.0647 15.0412 19.8975C15.2519 19.7303 15.4074 19.5036 15.4875 19.2469L20.1282 5.56876C20.211 5.33245 20.225 5.07746 20.1686 4.83348C20.1122 4.5895 19.9876 4.36657 19.8094 4.19064ZM5.2969 9.73126L17.2688 5.73751L10.6219 12.3844L5.2969 9.73126ZM14.2782 18.7031L11.6157 13.3781L18.2625 6.73126L14.2782 18.7031Z" fill="#7C9DEF"/>
</svg>
