<svg width="37" height="36" viewBox="0 0 37 36" fill="none" xmlns="http://www.w3.org/2000/svg">
<path d="M29 10.5H24.5V9C24.5 7.4087 23.8679 5.88258 22.7426 4.75736C21.6174 3.63214 20.0913 3 18.5 3C16.9087 3 15.3826 3.63214 14.2574 4.75736C13.1321 5.88258 12.5 7.4087 12.5 9V10.5H8C7.60218 10.5 7.22064 10.658 6.93934 10.9393C6.65804 11.2206 6.5 11.6022 6.5 12V28.5C6.5 29.6935 6.97411 30.8381 7.81802 31.682C8.66193 32.5259 9.80653 33 11 33H26C27.1935 33 28.3381 32.5259 29.182 31.682C30.0259 30.8381 30.5 29.6935 30.5 28.5V12C30.5 11.6022 30.342 11.2206 30.0607 10.9393C29.7794 10.658 29.3978 10.5 29 10.5ZM15.5 9C15.5 8.20435 15.8161 7.44129 16.3787 6.87868C16.9413 6.31607 17.7044 6 18.5 6C19.2956 6 20.0587 6.31607 20.6213 6.87868C21.1839 7.44129 21.5 8.20435 21.5 9V10.5H15.5V9ZM27.5 28.5C27.5 28.8978 27.342 29.2794 27.0607 29.5607C26.7794 29.842 26.3978 30 26 30H11C10.6022 30 10.2206 29.842 9.93934 29.5607C9.65804 29.2794 9.5 28.8978 9.5 28.5V13.5H12.5V15C12.5 15.3978 12.658 15.7794 12.9393 16.0607C13.2206 16.342 13.6022 16.5 14 16.5C14.3978 16.5 14.7794 16.342 15.0607 16.0607C15.342 15.7794 15.5 15.3978 15.5 15V13.5H21.5V15C21.5 15.3978 21.658 15.7794 21.9393 16.0607C22.2206 16.342 22.6022 16.5 23 16.5C23.3978 16.5 23.7794 16.342 24.0607 16.0607C24.342 15.7794 24.5 15.3978 24.5 15V13.5H27.5V28.5Z" fill="#7C9DEF"/>
</svg>
