<svg width="35" height="35" viewBox="0 0 35 35" fill="none" xmlns="http://www.w3.org/2000/svg">
<g clip-path="url(#clip0_154_412)">
<path fill-rule="evenodd" clip-rule="evenodd" d="M31.4214 7.4537C31.8315 7.86392 32.0619 8.42022 32.0619 9.00026C32.0619 9.58031 31.8315 10.1366 31.4214 10.5468L15.0254 26.9429C14.8087 27.1596 14.5515 27.3315 14.2684 27.4488C13.9852 27.5661 13.6818 27.6265 13.3753 27.6265C13.0688 27.6265 12.7654 27.5661 12.4823 27.4488C12.1991 27.3315 11.9419 27.1596 11.7252 26.9429L3.57895 18.7981C3.37002 18.5963 3.20337 18.3549 3.08873 18.088C2.97408 17.8211 2.91374 17.5341 2.91122 17.2436C2.90869 16.9532 2.96404 16.6651 3.07403 16.3963C3.18402 16.1275 3.34645 15.8832 3.55184 15.6778C3.75723 15.4724 4.00147 15.31 4.2703 15.2C4.53914 15.09 4.82719 15.0347 5.11764 15.0372C5.4081 15.0397 5.69514 15.1001 5.96202 15.2147C6.22891 15.3294 6.47029 15.496 6.67208 15.7049L13.3746 22.4074L28.3269 7.4537C28.53 7.25042 28.7712 7.08917 29.0367 6.97915C29.3022 6.86913 29.5868 6.8125 29.8742 6.8125C30.1615 6.8125 30.4461 6.86913 30.7116 6.97915C30.9771 7.08917 31.2183 7.25042 31.4214 7.4537Z" fill="white"/>
</g>
<defs>
<clipPath id="clip0_154_412">
<rect width="35" height="35" fill="white"/>
</clipPath>
</defs>
</svg>
