<svg width="90" height="85" viewBox="0 0 90 85" fill="none" xmlns="http://www.w3.org/2000/svg">
<ellipse cx="44.6936" cy="42.0476" rx="44.6936" ry="42.0476" fill="#A4B9EF" fill-opacity="0.4"/>
<path fill-rule="evenodd" clip-rule="evenodd" d="M63.6988 25.3691C64.1585 25.8638 64.4167 26.5347 64.4167 27.2343C64.4167 27.9338 64.1585 28.6047 63.6988 29.0995L40.4054 54.162C39.9456 54.6566 39.322 54.9344 38.6718 54.9344C38.0217 54.9344 37.3981 54.6566 36.9383 54.162L25.9046 42.2903C25.458 41.7927 25.2108 41.1263 25.2164 40.4346C25.222 39.7429 25.4799 39.0812 25.9345 38.5921C26.3891 38.1029 27.0041 37.8255 27.6469 37.8195C28.2898 37.8134 28.9092 38.0794 29.3716 38.5599L38.6718 48.5665L60.2318 25.3691C60.6916 24.8745 61.3151 24.5967 61.9653 24.5967C62.6154 24.5967 63.239 24.8745 63.6988 25.3691Z" fill="#3D5AF1"/>
</svg>
