<svg width="39" height="39" viewBox="0 0 39 39" fill="none" xmlns="http://www.w3.org/2000/svg">
<g clip-path="url(#clip0_191_90)">
<path fill-rule="evenodd" clip-rule="evenodd" d="M21.337 26.1309C20.8875 26.5799 20.2781 26.8321 19.6427 26.8321C19.0073 26.8321 18.3978 26.5799 17.9483 26.1309L8.90408 17.0899C8.45449 16.6401 8.202 16.0301 8.20215 15.3942C8.2023 14.7582 8.45508 14.1484 8.90488 13.6988C9.35469 13.2492 9.96467 12.9967 10.6006 12.9968C11.2366 12.997 11.8465 13.2498 12.2961 13.6996L19.6427 21.0462L26.9893 13.6996C27.4413 13.2626 28.0468 13.0206 28.6755 13.0258C29.3042 13.0309 29.9057 13.2828 30.3505 13.7272C30.7952 14.1715 31.0477 14.7728 31.0534 15.4015C31.0592 16.0301 30.8178 16.6359 30.3812 17.0883L21.3386 26.1325L21.337 26.1309Z" fill="#7C9DEF"/>
</g>
<defs>
<clipPath id="clip0_191_90">
<rect width="38.3635" height="38.3635" fill="white" transform="translate(0.459961 0.459595)"/>
</clipPath>
</defs>
</svg>
