<svg width="30" height="18" viewBox="0 0 30 18" fill="none" xmlns="http://www.w3.org/2000/svg">
<path d="M19.6875 9C19.6875 10.0774 19.1936 11.1108 18.3146 11.8726C17.4355 12.6345 16.2432 13.0625 15 13.0625C13.7568 13.0625 12.5645 12.6345 11.6854 11.8726C10.8064 11.1108 10.3125 10.0774 10.3125 9C10.3125 7.92256 10.8064 6.88925 11.6854 6.12738C12.5645 5.36551 13.7568 4.9375 15 4.9375C16.2432 4.9375 17.4355 5.36551 18.3146 6.12738C19.1936 6.88925 19.6875 7.92256 19.6875 9Z" fill="black"/>
<path d="M0 9C0 9 5.625 0.0625 15 0.0625C24.375 0.0625 30 9 30 9C30 9 24.375 17.9375 15 17.9375C5.625 17.9375 0 9 0 9ZM15 14.6875C16.7405 14.6875 18.4097 14.0883 19.6404 13.0217C20.8711 11.9551 21.5625 10.5084 21.5625 9C21.5625 7.49158 20.8711 6.04494 19.6404 4.97833C18.4097 3.91172 16.7405 3.3125 15 3.3125C13.2595 3.3125 11.5903 3.91172 10.3596 4.97833C9.1289 6.04494 8.4375 7.49158 8.4375 9C8.4375 10.5084 9.1289 11.9551 10.3596 13.0217C11.5903 14.0883 13.2595 14.6875 15 14.6875Z" fill="black"/>
</svg>
