<svg width="36" height="37" viewBox="0 0 36 37" fill="none" xmlns="http://www.w3.org/2000/svg">
<path d="M25.0312 4.4375C22.2061 4.4375 19.6987 5.55266 18 7.46938C16.3013 5.55266 13.7939 4.4375 10.9688 4.4375C8.50812 4.44048 6.14913 5.41928 4.4092 7.1592C2.66928 8.89913 1.69048 11.2581 1.6875 13.7188C1.6875 23.8916 16.567 32.0197 17.1998 32.3614C17.4458 32.4938 17.7207 32.5632 18 32.5632C18.2793 32.5632 18.5542 32.4938 18.8002 32.3614C19.433 32.0197 34.3125 23.8916 34.3125 13.7188C34.3095 11.2581 33.3307 8.89913 31.5908 7.1592C29.8509 5.41928 27.4919 4.44048 25.0312 4.4375ZM24.2592 24.4569C22.3007 26.1188 20.207 27.6146 18 28.9288C15.793 27.6146 13.6993 26.1188 11.7408 24.4569C8.69344 21.8427 5.0625 17.8559 5.0625 13.7188C5.0625 12.1523 5.68476 10.65 6.7924 9.5424C7.90004 8.43476 9.40232 7.8125 10.9688 7.8125C13.4719 7.8125 15.5672 9.13438 16.4377 11.2634C16.5644 11.5738 16.7806 11.8394 17.0589 12.0264C17.3371 12.2133 17.6648 12.3132 18 12.3132C18.3352 12.3132 18.6629 12.2133 18.9411 12.0264C19.2194 11.8394 19.4356 11.5738 19.5623 11.2634C20.4328 9.13438 22.5281 7.8125 25.0312 7.8125C26.5977 7.8125 28.1 8.43476 29.2076 9.5424C30.3152 10.65 30.9375 12.1523 30.9375 13.7188C30.9375 17.8559 27.3066 21.8427 24.2592 24.4569Z" fill="#7C9DEF"/>
</svg>
