<svg width="60" height="64" viewBox="0 0 60 64" fill="none" xmlns="http://www.w3.org/2000/svg">
<g opacity="0.2">
<path fill-rule="evenodd" clip-rule="evenodd" d="M30.6562 32.6484C31.4519 32.6484 32.215 32.9856 32.7776 33.5857C33.3402 34.1858 33.6562 34.9997 33.6562 35.8484V56.6484C33.6562 57.4971 33.3402 58.3111 32.7776 58.9112C32.215 59.5113 31.4519 59.8484 30.6562 59.8484C29.8606 59.8484 29.0975 59.5113 28.5349 58.9112C27.9723 58.3111 27.6562 57.4971 27.6562 56.6484V35.8484C27.6562 34.9997 27.9723 34.1858 28.5349 33.5857C29.0975 32.9856 29.8606 32.6484 30.6562 32.6484Z" fill="#85B6FF"/>
<path d="M26.9436 18.4198C32.5536 23.5142 34.4136 31.0054 31.1046 35.1494C27.7956 39.2966 21.3546 40.9318 14.0286 35.1494C7.48557 29.9846 4.05057 17.7414 7.35957 13.6006C10.6716 9.45664 21.3366 13.3254 26.9436 18.4198Z" fill="#85B6FF"/>
<path fill-rule="evenodd" clip-rule="evenodd" d="M26.5707 28.782C26.1657 27.166 25.0437 25.102 23.0517 23.294C20.9697 21.3996 17.7117 19.582 14.7297 18.7244C13.8663 18.46 12.9776 18.3011 12.0807 18.2508C12.0747 19.1852 12.2547 20.5036 12.7167 22.0492C13.7067 25.3676 15.5997 28.43 17.5977 30.0076C20.3607 32.1868 22.4307 32.574 23.6817 32.4876C24.9357 32.4012 25.8897 31.8124 26.5377 31.0028C26.5557 30.9772 26.9787 30.43 26.5677 28.782M11.2137 18.318C11.2137 18.318 11.2197 18.3116 11.2377 18.3084C11.2299 18.3113 11.2218 18.3166 11.2137 18.318ZM31.1037 35.1468C34.4127 31.0028 32.5497 23.5116 26.9397 18.4172C21.3297 13.3228 10.6677 9.45078 7.35567 13.5948C4.04667 17.7388 7.48167 29.982 14.0247 35.1468C21.3537 40.9292 27.7947 39.294 31.1007 35.1468" fill="#85B6FF"/>
<path d="M37.8984 25.8085C32.1534 29.6421 30.2214 37.0213 32.2704 40.5093C34.3164 43.9973 39.8814 47.1973 47.2194 42.8901C53.7744 39.0405 57.6924 27.6005 55.6434 24.1125C53.5974 20.6245 43.6434 21.9717 37.8984 25.8085Z" fill="#85B6FF"/>
<path fill-rule="evenodd" clip-rule="evenodd" d="M37.7994 35.4865C38.3154 33.9793 39.4104 32.3505 41.0814 31.2305C43.0524 29.9185 46.0644 28.8785 48.7704 28.5809C49.1934 28.5329 49.5774 28.5105 49.9194 28.5009C49.7212 29.2907 49.4665 30.0631 49.1574 30.8113C47.9154 33.8513 46.0224 36.2865 44.3274 37.2849C41.8314 38.7473 40.1604 38.6737 39.2424 38.4241C38.56 38.2529 37.9445 37.8592 37.4814 37.2977C37.4803 36.6771 37.5882 36.0649 37.7994 35.4865ZM50.1834 26.5233L50.1894 26.5777C50.1891 26.5594 50.1871 26.5412 50.1834 26.5233ZM51.6984 28.6609C51.7204 28.6723 51.7435 28.6809 51.7674 28.6865C51.7674 28.6865 51.7494 28.6737 51.6984 28.6609ZM32.2704 40.5073C30.2214 37.0193 32.1534 29.6401 37.8984 25.8065C43.6404 21.9697 53.5974 20.6225 55.6434 24.1105C57.6924 27.5985 53.7744 39.0385 47.2194 42.8881C39.8784 47.1953 34.3194 43.9953 32.2704 40.5073Z" fill="#85B6FF"/>
</g>
<path fill-rule="evenodd" clip-rule="evenodd" d="M29.4004 34.5664C29.7982 34.5664 30.1797 34.735 30.461 35.035C30.7424 35.3351 30.9004 35.7421 30.9004 36.1664V53.7664C30.9004 54.1908 30.7424 54.5977 30.461 54.8978C30.1797 55.1978 29.7982 55.3664 29.4004 55.3664C29.0026 55.3664 28.621 55.1978 28.3397 54.8978C28.0584 54.5977 27.9004 54.1908 27.9004 53.7664V36.1664C27.9004 35.7421 28.0584 35.3351 28.3397 35.035C28.621 34.735 29.0026 34.5664 29.4004 34.5664Z" fill="#85B6FF"/>
<path fill-rule="evenodd" clip-rule="evenodd" d="M7.16994 20.6249C8.36994 24.6249 10.7099 28.6537 13.6649 30.9833C17.1029 33.6969 20.2049 34.5737 22.7189 34.3977C23.8664 34.3302 24.989 34.0148 26.0188 33.4708C27.0486 32.9268 27.9641 32.1655 28.7099 31.2329C29.9549 29.6745 30.3329 27.3545 29.6669 24.6729C29.0009 21.9977 27.3179 19.1209 24.7169 16.7593C22.0949 14.3753 18.2279 12.2377 14.6459 11.2073C12.8579 10.6953 11.2259 10.4809 9.89994 10.5993C8.57094 10.7209 7.72794 11.1561 7.24794 11.7545C6.73194 12.4009 6.36894 13.5241 6.33294 15.1465C6.29694 16.7401 6.57894 18.6409 7.16994 20.6249ZM3.32994 15.0729C3.37494 13.0729 3.82194 11.1113 4.96194 9.68413C6.13794 8.21213 7.86894 7.57533 9.64494 7.41213C11.4299 7.25213 13.4309 7.54973 15.4229 8.12253C19.4039 9.26493 23.6759 11.6137 26.6609 14.3241C29.6669 17.0569 31.7219 20.4745 32.5619 23.8537C33.4019 27.2265 33.0539 30.7273 30.9899 33.3129C29.9841 34.5707 28.7501 35.5984 27.3622 36.3342C25.9743 37.07 24.4612 37.4987 22.9139 37.5945C19.5539 37.8281 15.7679 36.6281 11.8799 33.5625C8.28894 30.7209 5.64594 26.0489 4.31394 21.5945C3.64494 19.3545 3.28494 17.0953 3.32994 15.0665" fill="#85B6FF"/>
<path fill-rule="evenodd" clip-rule="evenodd" d="M52.0268 29.8471C50.5598 33.4407 48.1238 36.9158 45.2408 38.6087C38.5898 42.5127 33.9068 39.5367 32.2868 36.7815C31.6058 35.6199 31.4558 33.4727 32.3168 30.9575C33.1568 28.5095 34.8668 26.0007 37.4378 24.2823C40.0868 22.5159 43.7828 21.2839 47.0558 20.9223C48.6908 20.7463 50.1368 20.7943 51.2438 21.0503C52.3898 21.3159 52.9208 21.7447 53.1188 22.0807C53.3558 22.4839 53.5388 23.3991 53.3708 24.9063C53.2088 26.3463 52.7528 28.0711 52.0268 29.8471ZM56.3468 25.2871C56.5448 23.5463 56.4488 21.7255 55.6628 20.3815C54.8348 18.9735 53.3528 18.2663 51.8798 17.9239C50.3648 17.5719 48.5798 17.5399 46.7498 17.7415C43.0958 18.1415 38.9438 19.5015 35.8478 21.5719C32.933 23.5124 30.7012 26.4262 29.4998 29.8599C28.4708 32.8647 28.3778 36.1511 29.7428 38.4775C32.2208 42.6983 38.6618 46.1223 46.6868 41.4119C50.3588 39.2551 53.1608 35.0855 54.7778 31.1239C55.5968 29.1239 56.1458 27.0951 56.3498 25.2871" fill="#85B6FF"/>
<path fill-rule="evenodd" clip-rule="evenodd" d="M26.7304 33.968C24.8176 31.4171 22.6101 29.1345 20.1604 27.1744L18.0004 25.4464C17.8428 25.3203 17.71 25.1624 17.6097 24.9816C17.5093 24.8008 17.4433 24.6007 17.4155 24.3927C17.3876 24.1847 17.3984 23.9729 17.4473 23.7693C17.4962 23.5658 17.5822 23.3745 17.7004 23.2064C17.8186 23.0383 17.9667 22.8967 18.1362 22.7896C18.3056 22.6826 18.4933 22.6122 18.6883 22.5825C18.8833 22.5528 19.0818 22.5643 19.2727 22.6165C19.4635 22.6686 19.6428 22.7603 19.8004 22.8864L21.9604 24.6144C24.6064 26.736 27.0004 29.2064 29.0704 31.968C29.3045 32.3004 29.4081 32.7169 29.3593 33.1293C29.3105 33.5417 29.1132 33.9177 28.8091 34.1776C28.5049 34.4376 28.1179 34.561 27.7299 34.5219C27.3419 34.4828 26.9835 34.2841 26.7304 33.968ZM33.4624 39.6992C35.3749 37.6575 37.4985 35.8539 39.7924 34.3232L42.1954 32.7232C42.3624 32.6118 42.5073 32.4665 42.6216 32.2954C42.736 32.1243 42.8177 31.9309 42.862 31.7262C42.9063 31.5214 42.9123 31.3094 42.8798 31.1022C42.8473 30.895 42.7768 30.6966 42.6724 30.5184C42.568 30.3402 42.4317 30.1857 42.2713 30.0637C42.111 29.9417 41.9296 29.8546 41.7377 29.8074C41.5457 29.7601 41.347 29.7537 41.1527 29.7884C40.9584 29.8231 40.7724 29.8982 40.6054 30.0096L38.2054 31.6096C35.7181 33.2676 33.4154 35.2214 31.3414 37.4336C31.0597 37.7336 30.9013 38.1407 30.9011 38.5653C30.9008 38.9899 31.0586 39.3972 31.3399 39.6976C31.6212 39.998 32.0028 40.167 32.4008 40.1673C32.7989 40.1676 33.1807 39.9992 33.4624 39.6992Z" fill="#85B6FF"/>
</svg>
