<svg width="62" height="67" viewBox="0 0 62 67" fill="none" xmlns="http://www.w3.org/2000/svg">
<path d="M36.5284 33.5005H36.3734C38.4659 33.5005 39.6801 30.9601 38.4917 29.1176L25.3684 8.85007C25.1303 8.48149 24.8134 8.18048 24.4446 7.97263C24.0758 7.76479 23.666 7.65625 23.2501 7.65625C22.8341 7.65625 22.4243 7.76479 22.0555 7.97263C21.6867 8.18048 21.3698 8.48149 21.1318 8.85007L8.00842 29.1176C6.82009 30.9601 8.03425 33.5005 10.1268 33.5005H9.97175L2.55759 45.9513C1.44675 47.7938 2.68675 50.2505 4.72759 50.2505H18.0834V55.8338C18.0834 58.9047 20.4084 61.4171 23.2501 61.4171C26.0918 61.4171 28.4168 58.9047 28.4168 55.8338V50.2505H41.7726C43.8134 50.2505 45.0534 47.7938 43.9426 45.9513L36.5284 33.5005Z" fill="#85B6FF"/>
<path d="M59.4428 45.9513L52.0287 33.5005H51.8737C53.9662 33.5005 55.1803 30.9601 53.992 29.1176L40.8687 8.85007C40.6306 8.48149 40.3137 8.18048 39.9449 7.97263C39.5761 7.76479 39.1663 7.65625 38.7503 7.65625C38.3344 7.65625 37.9246 7.76479 37.5558 7.97263C37.187 8.18048 36.8701 8.48149 36.632 8.85007L32.5762 15.1034L40.6103 27.4984C41.2854 28.5394 41.6123 29.7978 41.5372 31.0664C41.462 32.335 40.9894 33.5381 40.197 34.4776L46.1128 44.4438C47.1462 46.1747 47.1978 48.3521 46.2937 50.1388C46.2678 50.1946 46.242 50.2226 46.2162 50.2505H57.2728C59.3137 50.2505 60.5537 47.7938 59.4428 45.9513ZM33.5837 55.8338C33.5837 58.9047 35.9087 61.4171 38.7503 61.4171C41.592 61.4171 43.917 58.9047 43.917 55.8338V53.0422H33.5837V55.8338Z" fill="#85B6FF"/>
</svg>
