<svg width="49" height="60" viewBox="0 0 49 60" fill="none" xmlns="http://www.w3.org/2000/svg">
<g clip-path="url(#clip0_75_23)">
<path d="M23.0344 0.691406L6.78125 19.8516C6.35469 20.3438 6.125 21 6.125 21.668C6.125 23.168 7.25156 24.375 8.65156 24.375H11.375L3.34687 32.9766C2.8875 33.4688 2.625 34.1484 2.625 34.8516C2.625 36.3164 3.72969 37.5 5.09687 37.5H8.75L0.590625 47.9883C0.207813 48.4805 0 49.1016 0 49.7461C0 51.2695 1.14844 52.5 2.57031 52.5H21V56.25C21 58.3242 22.5641 60 24.5 60C26.4359 60 28 58.3242 28 56.25V52.5H46.4297C47.8516 52.5 49 51.2695 49 49.7461C49 49.1016 48.7922 48.4805 48.4094 47.9883L40.25 37.5H43.9031C45.2703 37.5 46.375 36.3164 46.375 34.8516C46.375 34.1484 46.1125 33.4688 45.6531 32.9766L37.625 24.375H40.3484C41.7375 24.375 42.875 23.168 42.875 21.668C42.875 21 42.6453 20.3438 42.2188 19.8516L25.9656 0.691406C25.5938 0.246094 25.0578 0 24.5 0C23.9422 0 23.4062 0.246094 23.0344 0.691406Z" fill="#85B6FF"/>
</g>
<defs>
<clipPath id="clip0_75_23">
<rect width="49" height="60" fill="white"/>
</clipPath>
</defs>
</svg>
