<svg width="70" height="70" viewBox="0 0 70 70" fill="none" xmlns="http://www.w3.org/2000/svg">
<path d="M28.4375 44.8721C28.4778 46.2958 29.0716 47.6476 30.0928 48.6403C31.114 49.633 32.4821 50.1884 33.9062 50.1884C35.3304 50.1884 36.6985 49.633 37.7197 48.6403C38.7409 47.6476 39.3347 46.2958 39.375 44.8721V9.81527C39.3347 8.39164 38.7409 7.03983 37.7197 6.04711C36.6985 5.05439 35.3304 4.49902 33.9062 4.49902C32.4821 4.49902 31.114 5.05439 30.0928 6.04711C29.0716 7.03983 28.4778 8.39164 28.4375 9.81527V44.8721ZM28.4375 60.1562C28.4375 63.164 30.8984 65.625 33.9062 65.625C36.9141 65.625 39.375 63.164 39.375 60.1562C39.375 57.1484 36.9141 54.6875 33.9062 54.6875C32.4573 54.6921 31.0689 55.2697 30.0444 56.2943C29.0198 57.3189 28.4421 58.7072 28.4375 60.1562Z" fill="black"/>
</svg>
