<svg width="48" height="48" viewBox="0 0 48 48" fill="none" xmlns="http://www.w3.org/2000/svg">
<path d="M18 12C18 10.296 19.972 9.40599 21.246 10.434L21.414 10.586L33.414 22.586C33.7584 22.9304 33.9652 23.3886 33.9958 23.8746C34.0263 24.3607 33.8785 24.8412 33.58 25.226L33.414 25.414L21.414 37.414L21.226 37.58L21.072 37.688L20.88 37.796L20.808 37.83L20.674 37.884L20.458 37.948L20.352 37.968L20.232 37.988L20.118 37.996L20 38L19.882 37.996L19.766 37.986L19.646 37.968L19.542 37.948L19.326 37.884L19.192 37.83L18.928 37.69L18.748 37.56L18.586 37.414L18.42 37.226L18.312 37.072L18.204 36.88L18.17 36.808L18.116 36.674L18.052 36.458L18.032 36.352L18.012 36.232L18.004 36.118L18 12Z" fill="black"/>
</svg>
