<svg width="25" height="24" viewBox="0 0 25 24" fill="none" xmlns="http://www.w3.org/2000/svg">
<path d="M20.3998 21L14.0998 14.7C13.5998 15.1 13.0248 15.4167 12.3748 15.65C11.7248 15.8833 11.0331 16 10.2998 16C8.48314 16 6.9458 15.3707 5.6878 14.112C4.4298 12.8533 3.80047 11.316 3.7998 9.5C3.7998 7.68333 4.42914 6.146 5.6878 4.888C6.94647 3.63 8.4838 3.00067 10.2998 3C12.1165 3 13.6541 3.62933 14.9128 4.888C16.1715 6.14667 16.8005 7.684 16.7998 9.5C16.7998 10.2333 16.6831 10.925 16.4498 11.575C16.2165 12.225 15.8998 12.8 15.4998 13.3L21.7998 19.6L20.3998 21ZM10.2998 14C11.5498 14 12.6125 13.5627 13.4878 12.688C14.3631 11.8133 14.8005 10.7507 14.7998 9.5C14.7998 8.25 14.3625 7.18767 13.4878 6.313C12.6131 5.43833 11.5505 5.00067 10.2998 5C9.0498 5 7.98747 5.43767 7.1128 6.313C6.23814 7.18833 5.80047 8.25067 5.7998 9.5C5.7998 10.75 6.23747 11.8127 7.1128 12.688C7.98814 13.5633 9.05047 14.0007 10.2998 14Z" fill="#333333"/>
</svg>
