<svg width="36" height="37" viewBox="0 0 36 37" fill="none" xmlns="http://www.w3.org/2000/svg">
<path d="M32.96 30.0313C31.032 26.6474 28.0214 24.0108 24.4128 22.5458C26.2073 21.1999 27.5329 19.3235 28.2017 17.1825C28.8705 15.0414 28.8487 12.7441 28.1394 10.6161C27.4301 8.48809 26.0691 6.63721 24.2494 5.32564C22.4297 4.01406 20.2435 3.30829 18.0003 3.30829C15.7572 3.30829 13.571 4.01406 11.7512 5.32564C9.93153 6.63721 8.57062 8.48809 7.86128 10.6161C7.15195 12.7441 7.13015 15.0414 7.79897 17.1825C8.4678 19.3235 9.79334 21.1999 11.5878 22.5458C7.97929 24.0108 4.96868 26.6474 3.04065 30.0313C2.92118 30.2234 2.84156 30.4375 2.80651 30.661C2.77146 30.8845 2.7817 31.1127 2.83663 31.3322C2.89156 31.5516 2.99005 31.7578 3.12624 31.9384C3.26244 32.119 3.43356 32.2704 3.62944 32.3836C3.82531 32.4968 4.04194 32.5694 4.26645 32.5972C4.49095 32.625 4.71875 32.6073 4.9363 32.5453C5.15385 32.4833 5.35671 32.3781 5.53281 32.2361C5.70892 32.0942 5.85468 31.9182 5.96143 31.7188C8.50956 27.3144 13.0096 24.6875 18.0003 24.6875C22.9911 24.6875 27.4911 27.3158 30.0392 31.7188C30.2706 32.0908 30.6375 32.3582 31.0625 32.4646C31.4874 32.5709 31.9371 32.5079 32.3164 32.2887C32.6957 32.0696 32.975 31.7115 33.0951 31.2902C33.2152 30.869 33.1667 30.4175 32.96 30.0313ZM10.6878 14C10.6878 12.5537 11.1167 11.1399 11.9202 9.9374C12.7237 8.73487 13.8658 7.7976 15.202 7.24414C16.5382 6.69067 18.0085 6.54586 19.4269 6.82801C20.8454 7.11017 22.1484 7.80662 23.1711 8.82929C24.1937 9.85196 24.8902 11.1549 25.1723 12.5734C25.4545 13.9919 25.3097 15.4622 24.7562 16.7984C24.2027 18.1346 23.2655 19.2766 22.0629 20.0801C20.8604 20.8836 19.4466 21.3125 18.0003 21.3125C16.0616 21.3103 14.203 20.5391 12.8321 19.1683C11.4612 17.7974 10.6901 15.9387 10.6878 14Z" fill="#7C9DEF"/>
</svg>
