<svg width="21" height="21" viewBox="0 0 21 21" fill="none" xmlns="http://www.w3.org/2000/svg">
<g clip-path="url(#clip0_191_30)">
<path fill-rule="evenodd" clip-rule="evenodd" d="M5.37107 16.2872L2.83136 15.0178C2.47021 14.8372 2.1844 14.5349 2.0243 14.1642C1.8642 13.7936 1.84009 13.3782 1.95621 12.9915L3.89507 6.52952C4.06311 5.96958 4.34393 5.44994 4.72025 5.00256C5.09658 4.55519 5.56046 4.18953 6.08336 3.92809L7.82421 3.05724C8.18134 2.87858 8.57517 2.78555 8.9745 2.78552H11.5939C11.9933 2.78555 12.3871 2.87858 12.7442 3.05724L14.4842 3.92809C15.0071 4.18953 15.471 4.55519 15.8473 5.00256C16.2236 5.44994 16.5045 5.96958 16.6725 6.52952L18.6114 12.9915C18.7275 13.3782 18.7034 13.7936 18.5433 14.1642C18.3832 14.5349 18.0974 14.8372 17.7362 15.0178L15.1965 16.2872C15.0534 16.8388 14.7312 17.3272 14.2806 17.6759C13.83 18.0247 13.2763 18.2139 12.7065 18.2141H7.86193C7.29197 18.2141 6.73813 18.0249 6.28731 17.6762C5.8365 17.3275 5.51422 16.8389 5.37107 16.2872ZM8.59136 4.59067C8.71029 4.53106 8.84146 4.49995 8.9745 4.49981H11.5939C11.727 4.49995 11.8581 4.53106 11.9771 4.59067L12.1382 4.67038L10.2842 7.91467L8.43021 4.67124L8.59136 4.59067ZM11.1414 9.87066L13.6734 5.43924L13.7188 5.46152C14.0325 5.61827 14.3108 5.83752 14.5366 6.1058C14.7624 6.37407 14.931 6.6857 15.0319 7.02152L16.9699 13.4844L15.1819 14.3784L14.9959 12.143C14.9866 12.0307 14.9552 11.9214 14.9037 11.8213C14.8521 11.7212 14.7813 11.6323 14.6953 11.5595C14.6094 11.4868 14.5099 11.4317 14.4027 11.3973C14.2954 11.363 14.1824 11.3502 14.0702 11.3595C13.958 11.3689 13.8487 11.4002 13.7486 11.4518C13.6485 11.5034 13.5595 11.5742 13.4868 11.6601C13.414 11.7461 13.3589 11.8455 13.3246 11.9528C13.2903 12.06 13.2774 12.173 13.2868 12.2852L13.5611 15.5715C13.5709 15.6897 13.5561 15.8086 13.5176 15.9208C13.4792 16.033 13.4178 16.136 13.3375 16.2232C13.2572 16.3104 13.1596 16.3801 13.051 16.4277C12.9424 16.4753 12.8251 16.4999 12.7065 16.4998H11.1414V9.87066ZM9.42707 9.87066L6.89507 5.43924L6.84964 5.46152C6.53596 5.61827 6.25765 5.83752 6.03183 6.1058C5.80601 6.37407 5.63744 6.6857 5.5365 7.02152L3.5985 13.4852L5.38736 14.3792L5.57336 12.1438C5.59222 11.9172 5.70035 11.7073 5.87396 11.5604C6.04756 11.4135 6.27242 11.3415 6.49907 11.3604C6.72572 11.3792 6.93559 11.4874 7.08251 11.661C7.22943 11.8346 7.30137 12.0594 7.2825 12.2861L7.00821 15.5724C6.9985 15.6904 7.01336 15.8092 7.05185 15.9212C7.09033 16.0332 7.15162 16.136 7.23183 16.2232C7.31205 16.3103 7.40945 16.3799 7.5179 16.4275C7.62635 16.4751 7.74349 16.4997 7.86193 16.4998H9.42707V9.87066Z" fill="#333333"/>
</g>
<defs>
<clipPath id="clip0_191_30">
<rect width="20.5714" height="20.5714" fill="white" transform="translate(0 0.214233)"/>
</clipPath>
</defs>
</svg>
