<svg width="18" height="17" viewBox="0 0 18 17" fill="none" xmlns="http://www.w3.org/2000/svg">
<path d="M13.8745 6.26542V12.6501M13.8745 12.6501V14.8848H4.12451V12.6501M13.8745 12.6501H16.4995V6.26542C16.4995 5.30771 15.7495 4.19039 14.6245 3.3923C13.4995 2.59421 11.2495 2.11536 11.2495 2.11536H6.74951C6.74951 2.11536 4.49951 2.59421 3.37451 3.3923C2.24951 4.19039 1.49951 5.30771 1.49951 6.26542V12.6501H4.12451M4.12451 12.6501V6.26542" stroke="#333333" stroke-width="1.11429" stroke-linecap="round" stroke-linejoin="round"/>
<path d="M11.2495 2.11536C11.2495 2.62336 11.0125 3.11055 10.5905 3.46976C10.1685 3.82897 9.59625 4.03077 8.99951 4.03077C8.40277 4.03077 7.83048 3.82897 7.40852 3.46976C6.98656 3.11055 6.74951 2.62336 6.74951 2.11536" stroke="#333333" stroke-width="1.11429" stroke-linecap="round" stroke-linejoin="round"/>
</svg>
