<svg width="36" height="36" viewBox="0 0 36 36" fill="none" xmlns="http://www.w3.org/2000/svg">
<path d="M3.68123 24.0907C4.10317 24.5125 4.67536 24.7495 5.27198 24.7495C5.8686 24.7495 6.44079 24.5125 6.86273 24.0907L18.0002 12.9532L29.1377 24.0907C29.5621 24.5006 30.1304 24.7274 30.7204 24.7223C31.3103 24.7171 31.8747 24.4805 32.2918 24.0633C32.709 23.6462 32.9456 23.0818 32.9507 22.4919C32.9559 21.9019 32.7291 21.3336 32.3192 20.9092L19.591 8.18099C19.169 7.75918 18.5968 7.52222 18.0002 7.52222C17.4036 7.52222 16.8314 7.75918 16.4095 8.18099L3.68123 20.9092C3.25942 21.3312 3.02246 21.9034 3.02246 22.5C3.02246 23.0966 3.25942 23.6688 3.68123 24.0907Z" fill="#444444"/>
</svg>
